<?xml version="1.0" standalone="no"?>
<!DOCTYPE svg PUBLIC "-//W3C//DTD SVG 20010904//EN"
 "http://www.w3.org/TR/2001/REC-SVG-20010904/DTD/svg10.dtd">
<svg version="1.0" xmlns="http://www.w3.org/2000/svg"
 width="500.000000pt" height="500.000000pt" viewBox="0 0 500.000000 500.000000"
 preserveAspectRatio="xMidYMid meet">
<metadata>
Created by potrace 1.14, written by Peter Selinger 2001-2017
</metadata>
<g transform="translate(0.000000,500.000000) scale(0.100000,-0.100000)"
fill="#000000" stroke="none">
<path d="M1520 4957 c-89 -30 -359 -202 -420 -267 -3 -3 -34 -30 -70 -60 -74
-62 -116 -103 -147 -143 -18 -23 -19 -33 -12 -65 5 -20 14 -59 20 -87 6 -27
13 -63 17 -80 19 -84 -3 -212 -50 -295 l-25 -45 18 -125 c11 -69 21 -143 24
-165 3 -22 11 -80 19 -129 l13 -88 -34 -92 c-18 -50 -40 -107 -48 -126 -59
-147 -108 -292 -110 -330 -2 -25 -6 -151 -10 -280 -6 -242 -9 -262 -67 -485
-11 -44 -23 -98 -25 -120 -3 -38 -1 -41 38 -65 51 -31 86 -60 71 -60 -6 0 -9
-9 -7 -21 3 -14 0 -19 -9 -16 -7 3 -13 -1 -13 -8 0 -11 5 -11 19 -4 11 6 24 8
31 6 7 -2 21 0 32 5 11 6 4 -3 -15 -20 -35 -30 -35 -30 -8 -25 15 3 25 10 22
15 -3 5 3 4 15 -3 23 -15 10 -30 -22 -24 -15 4 -17 2 -7 -11 10 -11 16 -12 26
-3 9 7 19 8 27 2 13 -10 27 -11 42 -2 6 4 19 3 29 -1 17 -6 18 -7 3 -13 -9 -3
-17 -2 -17 4 0 6 -5 7 -10 4 -17 -10 -11 -21 15 -33 35 -16 40 -15 24 6 -11
14 -11 15 0 5 7 -6 21 -9 30 -6 9 4 -2 -9 -24 -27 -22 -18 -32 -30 -23 -27 9
3 19 3 21 -1 2 -4 2 -1 1 6 -2 6 3 12 11 12 8 0 15 5 15 10 0 6 5 10 12 10 7
0 5 -7 -5 -17 -13 -15 -13 -22 -3 -42 11 -20 14 -21 19 -7 4 10 3 15 -2 12 -5
-3 -11 1 -15 9 -4 11 1 13 26 8 24 -5 29 -3 23 7 -6 9 -4 11 5 5 10 -6 12 -4
7 8 -3 10 -3 17 2 17 5 0 11 -9 14 -21 3 -12 9 -19 14 -16 5 3 9 -38 8 -91 0
-53 3 -113 6 -132 19 -107 93 -419 115 -482 13 -40 26 -82 29 -93 8 -39 64
-184 81 -210 9 -14 24 -29 32 -34 14 -8 14 -12 3 -25 -9 -11 -10 -16 -2 -16 6
0 11 5 11 10 0 6 5 10 12 10 6 0 8 -3 5 -7 -4 -3 5 -15 20 -25 16 -10 22 -18
15 -18 -9 0 -10 -5 -3 -19 6 -10 7 -22 3 -26 -4 -5 -2 -5 5 -1 7 4 10 14 7 24
-5 14 -4 14 4 3 12 -17 8 -26 -44 -109 -19 -29 -34 -56 -34 -60 0 -4 -47 -24
-104 -45 -116 -43 -103 -36 -325 -170 -89 -53 -178 -106 -199 -117 -37 -20
-36 -20 2146 -20 l2182 0 0 28 c0 19 -9 33 -33 48 -17 12 -72 48 -120 80 -48
33 -98 66 -111 74 -127 82 -148 99 -152 123 -1 4 -3 9 -4 12 -1 3 -3 13 -4 23
-1 9 -5 23 -9 29 -5 7 -6 17 -3 22 3 5 -1 12 -10 15 -10 4 -14 14 -11 26 3 11
1 18 -4 15 -4 -3 -11 7 -15 22 -25 106 -54 117 -301 117 -149 1 -193 4 -193
13 0 7 -5 13 -11 13 -6 0 -8 7 -5 17 4 10 4 14 0 10 -12 -11 -33 13 -27 30 4
11 2 14 -5 9 -8 -5 -10 -1 -5 10 4 10 2 15 -3 11 -6 -3 -16 3 -23 15 -9 14 -9
18 -1 13 9 -5 10 -1 5 16 -5 19 -4 21 4 9 8 -11 11 -12 11 -2 0 7 4 11 8 8 5
-3 9 1 9 9 0 10 -4 12 -12 5 -14 -12 -25 -3 -25 19 0 14 2 14 11 1 8 -12 10
-12 7 -1 -2 8 -11 15 -20 17 -16 2 -18 -12 -5 -34 5 -7 4 -12 -2 -12 -10 0
-13 7 -10 26 0 4 -5 11 -13 15 -10 7 -10 9 0 9 7 0 10 4 7 10 -4 6 1 7 12 3
16 -6 16 -5 4 10 -7 9 -18 14 -24 10 -6 -4 -7 -1 -2 7 6 9 4 12 -7 8 -8 -4
-15 -1 -15 7 0 7 7 11 16 8 10 -3 6 4 -8 16 -13 12 -18 21 -11 21 9 0 9 4 -1
16 -7 9 -14 21 -15 28 -1 6 -3 16 -4 21 -5 20 0 35 12 35 9 0 9 -3 0 -12 -9
-9 -7 -15 6 -25 10 -9 11 -12 2 -7 -12 7 -13 5 -3 -8 7 -8 9 -19 5 -23 -4 -5
-1 -5 6 -1 7 5 11 3 10 -5 -2 -6 4 -14 12 -16 10 -3 11 -2 4 4 -6 4 -10 16 -8
25 1 10 -2 21 -8 24 -6 4 -5 10 3 16 11 8 10 9 -3 4 -10 -3 -18 -1 -18 4 0 6
6 10 13 10 6 0 -2 9 -19 19 -38 23 -48 37 -34 46 14 8 13 26 -1 22 -11 -2 -19
26 -21 70 0 13 -5 20 -11 16 -6 -3 -7 -1 -3 5 4 7 2 12 -5 12 -7 0 -9 3 -6 7
11 10 56 -37 54 -57 -1 -10 -5 -16 -10 -13 -5 3 -4 -4 2 -15 11 -21 41 -20 41
0 0 6 -6 6 -14 -2 -12 -9 -15 -8 -13 9 1 15 6 20 16 16 12 -5 11 -2 -2 13 -9
10 -14 22 -10 26 5 4 1 6 -7 4 -8 -2 -14 3 -13 10 2 6 -2 12 -8 12 -5 0 -7 6
-3 13 4 6 4 9 -1 5 -8 -8 -40 20 -41 36 0 6 4 16 9 23 5 7 6 17 3 22 -4 5 -2
12 3 15 5 4 12 -2 14 -11 3 -10 4 -4 2 12 -2 17 -4 32 -5 35 -1 3 -2 8 -2 12
1 3 -4 11 -12 17 -9 8 -13 7 -13 -4 0 -8 5 -12 10 -8 5 3 4 -4 -2 -16 -10 -18
-9 -20 6 -15 16 5 16 4 -1 -10 -11 -9 -25 -16 -30 -16 -6 0 -5 4 3 9 10 6 10
10 1 16 -6 4 -9 13 -6 21 3 8 0 14 -6 14 -7 0 -4 6 6 13 16 12 16 14 2 26 -9
8 -16 21 -15 30 0 12 2 11 9 -4 7 -19 8 -19 15 -2 6 14 10 16 16 6 4 -7 4 -18
-1 -24 -6 -7 -1 -16 12 -24 16 -10 19 -10 12 1 -14 22 -13 66 3 72 8 3 12 2 8
-3 -3 -5 -2 -11 2 -14 5 -2 1 -2 -7 0 -11 3 -12 1 -3 -8 6 -6 9 -19 7 -28 -3
-9 1 -6 7 7 12 22 49 31 49 11 0 -5 4 -8 9 -5 5 4 11 3 14 -1 2 -5 2 -2 0 5
-4 16 44 14 66 -3 11 -7 13 -7 8 2 -4 7 2 18 15 27 20 14 18 20 -4 18 -3 -1
-9 5 -12 13 -4 12 -1 12 19 3 29 -13 31 -21 10 -38 -8 -7 -15 -17 -15 -22 0
-5 7 -2 16 6 22 23 37 20 24 -4 -9 -16 -8 -19 6 -13 13 5 15 3 9 -7 -5 -9 -4
-11 4 -6 9 6 9 11 0 22 -11 14 1 20 15 7 11 -11 46 -14 46 -4 0 6 -9 8 -20 6
-13 -3 -18 0 -14 7 4 6 3 8 -3 5 -6 -4 -19 0 -29 8 -17 13 -17 14 -1 9 11 -4
16 -2 14 7 -2 8 -2 11 0 6 3 -4 10 -4 15 -1 6 4 8 2 5 -3 -4 -6 1 -17 10 -24
14 -12 16 -12 11 2 -4 10 -1 16 8 16 8 0 12 -2 10 -5 -3 -2 -1 -15 4 -27 7
-19 5 -25 -8 -29 -9 -2 -5 -3 10 -2 15 1 31 5 35 10 4 4 2 6 -6 4 -7 -2 -16 4
-18 12 -4 12 -3 12 5 2 5 -8 13 -14 18 -15 5 -1 8 -7 8 -14 -1 -9 3 -9 17 0
13 8 15 13 6 19 -6 4 -8 10 -4 15 17 16 26 -21 10 -39 -9 -10 -11 -18 -5 -18
6 0 12 5 14 11 3 9 10 9 27 -1 15 -7 21 -8 17 -1 -4 6 -3 11 3 11 5 0 12 -6
15 -12 2 -7 3 -2 2 11 -2 14 -8 27 -15 29 -6 2 -10 -2 -9 -8 2 -7 -4 -15 -12
-17 -13 -4 -13 -3 0 6 13 10 13 11 0 11 -12 1 -11 3 3 11 9 5 23 7 30 2 20
-13 57 -14 57 -3 0 6 -5 8 -12 4 -7 -4 -8 -3 -4 4 5 9 13 9 26 2 27 -14 34
-12 20 5 -7 9 -10 18 -6 22 3 3 6 1 6 -6 0 -7 5 -9 11 -6 6 4 8 13 5 21 -3 7
0 16 6 20 6 4 8 3 5 -3 -4 -6 4 -13 18 -15 31 -6 31 -2 3 23 -13 10 -17 18
-10 19 6 0 12 -6 12 -12 0 -10 3 -9 9 1 7 11 10 11 15 0 3 -8 3 -4 0 9 -3 12
-1 22 4 22 4 0 8 18 8 40 0 22 -3 40 -6 40 -15 0 -5 30 12 36 25 8 23 19 -4
21 -18 2 -20 0 -8 -7 25 -16 -3 -10 -30 6 l-25 15 25 -7 c22 -6 23 -5 12 9 -9
10 -10 17 -2 22 5 3 10 11 10 18 0 8 -3 8 -12 -1 -7 -7 -19 -12 -27 -11 -10 0
-7 4 7 9 26 11 28 23 7 40 -8 7 -15 17 -15 22 0 6 9 0 20 -13 10 -13 19 -19
20 -13 0 5 -6 16 -12 23 -8 9 -8 11 -2 8 7 -4 14 0 18 8 3 8 -2 19 -11 24 -14
7 -13 10 6 16 11 3 19 11 16 16 -3 5 1 6 10 3 11 -5 14 -2 8 12 -5 13 -3 15 8
9 11 -6 12 -5 2 6 -15 15 -17 33 -4 25 5 -3 15 2 22 12 13 15 12 16 -3 3 -20
-15 -25 -2 -6 17 7 7 8 12 2 12 -6 0 -18 -16 -27 -36 -10 -20 -12 -32 -6 -28
8 4 9 3 5 -4 -10 -17 -23 -15 -30 4 -3 8 -2 12 4 9 9 -6 14 8 11 28 0 4 4 7 9
7 6 0 10 4 10 9 0 5 -8 7 -19 4 -10 -3 -22 0 -25 5 -4 6 3 8 16 5 15 -3 19 -2
11 4 -8 6 -9 14 -3 23 8 13 10 13 10 0 0 -10 10 -16 28 -17 25 -2 26 -1 5 7
-13 5 -23 12 -23 15 0 4 4 4 9 0 5 -3 13 0 17 6 4 7 3 9 -2 6 -14 -8 -37 8
-40 27 -1 9 2 14 7 10 5 -3 7 -10 4 -15 -4 -5 1 -9 11 -9 15 0 15 2 -1 26 -11
17 -13 29 -6 37 5 7 8 25 7 40 -2 15 1 30 7 34 6 4 7 1 2 -8 -8 -12 -6 -12 8
0 22 17 22 3 0 -21 -16 -18 -16 -18 0 -12 19 7 19 7 21 52 2 26 -1 31 -14 27
-23 -7 -47 20 -25 29 9 3 13 11 9 17 -4 8 -9 7 -15 -2 -6 -9 -7 -1 -5 21 2 19
9 36 15 38 7 2 5 12 -5 27 -14 22 -14 24 4 34 11 6 22 8 25 5 2 -3 14 8 26 25
21 30 21 30 1 26 -11 -2 -20 0 -20 6 0 13 -23 7 -35 -9 -9 -11 -15 -9 -30 10
l-20 23 21 -18 c19 -16 22 -16 28 -2 3 9 10 13 16 10 16 -10 12 47 -5 66 -14
15 -14 18 0 33 15 15 15 17 1 32 -17 16 -12 39 5 28 5 -3 6 -10 3 -16 -5 -7
-2 -8 6 -3 9 6 11 4 5 -5 -6 -9 -4 -11 4 -5 10 6 11 3 2 -12 -6 -11 -7 -24 -3
-28 4 -5 2 -5 -5 -2 -7 5 -10 0 -9 -10 2 -10 6 -17 9 -15 4 1 13 2 20 2 7 0 8
3 2 8 -13 9 -18 32 -7 32 4 0 14 -6 22 -12 8 -7 6 -3 -4 10 -11 12 -16 22 -11
22 4 0 1 8 -6 17 -12 15 -12 16 4 10 9 -4 17 -2 17 4 0 6 -9 9 -20 6 -14 -4
-20 0 -20 13 0 10 -7 23 -15 30 -9 7 -14 19 -11 27 3 7 1 13 -4 13 -6 0 -10 5
-10 11 0 8 4 8 15 -1 8 -6 18 -9 23 -6 5 3 9 -1 9 -8 0 -8 -6 -12 -14 -9 -7 3
-13 0 -13 -7 0 -6 4 -9 9 -5 5 3 13 0 17 -6 5 -8 3 -9 -6 -4 -9 6 -11 4 -6 -4
5 -7 11 -10 14 -7 3 3 12 0 21 -6 9 -7 7 -2 -4 11 -15 19 -16 23 -4 19 9 -4
16 -1 16 7 0 7 -6 11 -14 8 -9 -4 -11 0 -6 13 5 13 3 16 -10 11 -18 -7 -42 17
-32 33 4 6 12 9 19 7 6 -3 20 1 29 8 16 12 16 13 -4 18 -12 3 -18 10 -14 16 3
6 11 9 16 6 5 -4 9 -1 9 5 0 6 -7 10 -16 8 -10 -2 -19 3 -21 10 -3 8 2 10 14
6 13 -4 14 -3 5 4 -16 11 -16 10 -3 44 8 21 7 27 -6 32 -9 4 -18 4 -21 1 -3
-3 0 -5 6 -5 7 0 12 -9 12 -21 0 -11 -5 -17 -10 -14 -6 4 -8 10 -5 15 3 5 -5
16 -17 26 -14 10 -16 14 -6 11 19 -7 33 19 16 29 -7 4 -8 3 -4 -4 4 -7 2 -12
-4 -12 -6 0 -10 6 -8 13 3 18 -22 58 -33 52 -5 -4 -9 -1 -9 4 0 19 14 12 42
-21 14 -18 30 -29 35 -25 4 5 0 13 -10 18 -19 11 -23 29 -6 29 5 0 7 -6 3 -12
-4 -7 -4 -10 1 -6 4 4 15 2 24 -4 13 -10 14 -10 4 1 -6 7 -9 21 -6 30 3 9 1
12 -4 6 -16 -20 -64 -6 -62 18 0 9 2 8 6 -1 2 -6 9 -9 15 -6 7 4 1 14 -13 26
-22 18 -22 18 -2 9 19 -10 22 -8 20 9 -1 14 -6 18 -18 15 -10 -3 -20 -1 -24 4
-3 7 0 8 9 5 11 -4 14 0 11 15 -2 12 0 19 6 16 5 -4 9 -2 9 3 0 16 -13 22 -27
11 -7 -6 -13 -7 -13 -3 0 5 9 15 20 22 14 8 19 9 18 1 -2 -6 4 -14 12 -16 12
-4 12 -3 2 5 -8 5 -14 13 -15 18 -1 5 -8 8 -14 8 -7 -1 -10 2 -7 7 3 5 0 9 -6
9 -6 0 -8 5 -5 10 3 6 -2 10 -12 11 -16 0 -16 1 2 8 19 8 19 8 0 19 -11 6 -14
12 -7 12 6 0 12 5 12 11 0 5 -6 7 -12 3 -7 -4 -10 -3 -5 1 4 5 17 10 29 12 20
3 21 2 5 -15 -10 -10 -14 -22 -10 -26 5 -4 9 -12 9 -17 1 -5 2 -13 3 -19 0 -5
6 -10 12 -10 5 0 7 5 4 10 -3 6 -1 10 4 10 6 0 11 5 11 10 0 6 -5 9 -12 8 -6
-2 -14 5 -16 16 -2 10 0 16 5 13 5 -3 9 5 9 18 0 13 -4 21 -9 18 -4 -3 -18 3
-30 14 -19 15 -20 16 -8 1 7 -10 9 -18 3 -18 -11 0 -25 27 -26 51 -1 9 -8 24
-16 34 -14 18 -14 18 12 1 17 -11 28 -14 33 -6 3 6 3 9 -2 8 -4 -2 -8 2 -8 7
0 6 6 9 14 8 9 -1 10 2 2 10 -7 7 -14 7 -23 0 -9 -8 -17 -7 -28 5 -13 14 -12
15 3 9 9 -3 19 -1 23 5 4 7 3 8 -4 4 -7 -4 -12 -3 -12 3 0 5 5 11 12 13 8 3 6
7 -5 11 -9 3 -19 1 -23 -5 -5 -7 -2 -8 6 -3 9 5 11 4 6 -3 -12 -20 -28 -13
-21 9 5 14 4 19 -4 15 -7 -5 -9 -1 -5 8 3 9 10 14 14 11 5 -3 12 0 16 6 4 8 3
9 -4 5 -7 -4 -13 -1 -14 6 0 7 -2 18 -2 23 -1 6 -5 16 -9 23 -9 13 3 16 19 5
5 -5 -2 2 -16 14 -14 13 -31 23 -38 23 -7 0 -10 5 -7 10 4 6 10 8 15 5 12 -7
23 12 15 26 -5 7 -14 4 -28 -8 l-21 -18 17 27 c14 23 14 28 2 38 -13 10 -12
14 0 27 8 8 15 20 15 26 0 7 -5 4 -11 -5 -12 -22 -26 -23 -26 -3 0 8 4 15 8
15 4 0 7 9 6 19 0 11 -5 17 -9 15 -5 -3 -5 -10 -2 -16 4 -7 2 -8 -4 -4 -7 4
-10 -1 -7 -14 2 -11 -1 -20 -7 -20 -5 0 -8 6 -5 14 3 7 0 19 -6 26 -9 9 -9 11
-1 7 7 -4 15 0 18 9 5 12 1 14 -17 9 -15 -4 -18 -3 -8 3 9 6 10 11 2 13 -6 2
-13 15 -16 28 -2 12 -9 29 -16 37 -10 13 -6 18 14 15 4 0 7 4 7 10 0 8 6 7 18
-2 15 -12 16 -12 4 2 -7 9 -23 15 -37 13 -14 -1 -23 2 -20 6 3 5 1 12 -5 15
-8 5 -7 11 1 21 6 7 9 20 6 28 -3 7 0 19 6 25 6 6 7 11 3 11 -5 0 -2 8 5 18
12 15 12 16 -2 5 -9 -7 -20 -9 -25 -5 -4 4 -3 0 4 -9 11 -15 7 -29 -9 -29 -5
0 -5 7 -2 17 5 12 3 14 -8 9 -8 -4 0 5 16 19 21 19 24 24 8 16 -33 -17 -52
-13 -23 5 23 14 23 14 3 9 -22 -6 -35 11 -47 60 -2 6 -8 23 -14 38 -7 15 -15
39 -18 52 -5 19 -19 27 -77 44 -40 12 -84 25 -99 30 -26 9 -28 8 -28 -20 0
-27 -2 -29 -20 -19 -11 6 -18 15 -15 21 4 5 3 9 -2 8 -23 -4 -34 5 -58 46 -15
25 -61 75 -103 112 -42 38 -98 87 -123 111 -67 62 -107 90 -140 97 -16 4 -31
11 -34 16 -4 5 -12 9 -20 9 -7 0 -42 13 -77 29 -35 17 -178 68 -318 115 -252
83 -256 84 -380 90 -69 4 -163 8 -210 11 -47 3 -150 7 -230 10 -80 3 -179 7
-220 10 -41 2 -138 7 -215 10 -127 4 -146 3 -205 -18z m2670 -957 c0 -5 -5
-10 -11 -10 -5 0 -7 5 -4 10 3 6 8 10 11 10 2 0 4 -4 4 -10z m-300 -144 c0 -2
-8 -10 -17 -17 -16 -13 -17 -12 -4 4 13 16 21 21 21 13z m1 -103 c1 -10 2 -22
4 -28 1 -5 3 -16 3 -24 2 -11 7 -10 26 3 15 10 27 12 31 6 9 -14 45 -32 45
-23 0 4 -12 16 -26 27 -19 13 -29 15 -37 7 -15 -15 -30 -14 -24 3 3 7 1 19 -4
25 -5 6 -6 9 -3 6 4 -3 14 1 22 8 10 8 13 8 9 1 -4 -7 0 -14 7 -17 8 -3 17 -3
19 1 2 4 2 1 1 -5 -4 -16 36 -44 50 -35 6 3 3 -6 -7 -22 -10 -15 -15 -31 -11
-34 4 -4 9 -1 11 6 4 10 8 10 19 1 11 -9 17 -9 28 0 16 14 25 4 20 -23 -3 -21
-44 -67 -53 -61 -4 2 -7 -5 -8 -15 -1 -12 7 -22 20 -26 12 -4 25 -11 28 -16 3
-5 9 -2 12 7 5 11 3 14 -5 9 -7 -5 -9 -2 -5 8 3 9 1 20 -5 26 -8 8 -7 16 2 27
14 16 31 16 32 0 0 -6 4 -16 10 -23 6 -7 8 -15 4 -19 -3 -3 -6 -1 -6 6 0 7 -4
10 -8 7 -5 -3 -8 -18 -7 -35 1 -23 -2 -29 -16 -26 -10 2 -22 -1 -25 -7 -4 -6
-12 -1 -21 13 -13 23 -14 23 -10 2 3 -15 1 -20 -9 -16 -8 3 -12 9 -9 13 3 5 1
12 -5 15 -6 4 -9 1 -8 -6 2 -7 -4 -13 -12 -14 -8 0 -14 -7 -12 -13 2 -9 -3
-10 -15 -4 -10 5 -25 8 -34 7 -9 -2 -16 4 -16 14 0 38 -4 52 -11 47 -5 -3 -9
1 -9 8 0 9 7 12 16 8 9 -3 13 -2 9 3 -4 4 -3 14 3 22 8 9 8 13 1 13 -6 0 -14
-5 -18 -11 -5 -8 -10 -6 -16 5 -6 10 -7 20 -4 23 3 4 6 1 6 -5 0 -6 11 -9 25
-8 28 3 62 41 46 50 -5 4 -12 -3 -16 -14 -6 -20 -7 -20 -26 4 -12 15 -16 31
-12 43 6 15 5 16 -9 5 -14 -11 -17 -10 -23 8 -3 11 -11 18 -16 15 -5 -4 -9 -1
-9 5 0 6 -5 8 -12 4 -7 -4 -8 -3 -4 4 5 9 13 9 27 2 20 -11 39 -6 39 10 0 5
-8 7 -17 4 -15 -5 -16 -4 -3 5 21 15 30 14 31 -6z m-48 -56 c4 3 7 1 7 -5 0
-20 -19 -13 -30 11 -10 20 -10 20 3 5 8 -10 17 -15 20 -11z m207 -2 c-5 -7 -7
-15 -3 -18 3 -4 1 -7 -5 -7 -6 0 -10 8 -9 18 0 10 7 19 14 19 9 0 10 -4 3 -12z
m244 6 c4 -5 -3 -7 -14 -4 -23 6 -26 13 -6 13 8 0 17 -4 20 -9z m-432 -43 c-7
-7 -12 -8 -12 -2 0 6 3 14 7 17 3 4 9 5 12 2 2 -3 -1 -11 -7 -17z m33 -18 c3
-5 2 -10 -4 -10 -5 0 -13 5 -16 10 -3 6 -2 10 4 10 5 0 13 -4 16 -10z m430
-40 c-3 -5 -1 -11 3 -14 11 -7 8 -52 -3 -49 -4 2 -9 21 -11 43 -2 25 1 38 7
35 5 -4 7 -10 4 -15z m-270 -39 c7 -12 -12 -24 -25 -16 -11 7 -4 25 10 25 5 0
11 -4 15 -9z m402 -645 c-4 -9 2 -17 14 -21 10 -4 17 -11 14 -16 -7 -11 -38
18 -41 37 -1 8 2 14 8 14 6 0 8 -7 5 -14z m3 -41 c0 -2 -6 -5 -13 -8 -8 -3
-14 1 -14 8 0 7 6 11 14 8 7 -3 13 -6 13 -8z m20 -30 c7 -8 9 -15 6 -15 -4 0
-14 7 -22 15 -9 8 -11 15 -6 15 5 0 15 -7 22 -15z m-22 -9 c-2 -1 -12 -8 -23
-16 -18 -14 -19 -13 -8 1 7 9 10 19 6 23 -4 4 1 4 10 0 10 -3 17 -7 15 -8z
m40 -37 c3 -11 2 -12 -6 -1 -5 8 -12 13 -16 12 -4 -1 -12 1 -19 4 -6 2 -1 3
12 2 14 -2 27 -9 29 -17z m-35 -140 c-9 -9 -12 -7 -10 9 1 14 5 18 11 12 7 -7
6 -14 -1 -21z m-19 -25 c3 -8 2 -12 -4 -9 -6 3 -10 10 -10 16 0 14 7 11 14 -7z
m16 -36 c0 -4 -4 -8 -9 -8 -6 0 -12 4 -15 8 -3 5 1 9 9 9 8 0 15 -4 15 -9z
m10 -78 c0 -23 -16 -35 -26 -19 -4 8 -3 9 4 5 8 -5 12 1 12 14 0 13 -4 19 -12
14 -7 -4 -8 -3 -4 5 10 16 26 4 26 -19z m-26 -89 c-2 -3 -12 3 -22 13 -16 17
-16 18 5 5 12 -7 20 -15 17 -18z m69 12 c-3 -8 -11 -12 -18 -9 -7 2 -18 -1
-24 -7 -6 -6 -11 -8 -11 -5 0 4 6 13 14 21 18 18 46 18 39 0z m-66 -88 c0 -8
-4 -12 -9 -9 -4 3 -8 9 -8 15 0 5 4 9 8 9 5 0 9 -7 9 -15z m-22 -65 c-3 -5 -1
-10 6 -10 7 0 10 -3 6 -6 -9 -9 -28 6 -22 17 4 5 8 9 11 9 3 0 2 -4 -1 -10z
m25 -53 c0 -6 -3 -7 -7 -4 -3 4 -11 3 -17 -3 -8 -6 -12 -3 -12 9 0 12 6 17 18
13 10 -2 18 -9 18 -15z m46 -14 c-11 -11 -48 -14 -41 -3 3 5 16 10 27 10 12 0
18 -3 14 -7z m-72 -29 c3 -8 2 -12 -4 -9 -6 3 -10 10 -10 16 0 14 7 11 14 -7z
m24 -30 c0 -17 -3 -22 -8 -13 -5 6 -6 18 -3 26 8 19 11 16 11 -13z m-38 -126
c0 -4 -4 -8 -9 -8 -6 0 -12 4 -15 8 -3 5 1 9 9 9 8 0 15 -4 15 -9z m17 -123
c5 -4 2 -5 -4 -1 -8 4 -13 2 -13 -5 0 -8 -3 -9 -13 0 -8 6 -16 8 -19 5 -3 -3
-8 -1 -11 4 -7 11 50 9 60 -3z m-40 -40 c0 -8 -4 -12 -9 -9 -4 3 -8 9 -8 15 0
5 4 9 8 9 5 0 9 -7 9 -15z m-3641 -34 c-4 -5 0 -11 6 -14 7 -3 3 -4 -9 -4 -17
1 -19 4 -11 14 12 15 22 18 14 4z m3644 -36 c14 -19 14 -19 -2 -6 -10 7 -18
18 -18 24 0 6 1 8 3 6 1 -2 9 -13 17 -24z m-3480 -29 c0 -2 -8 -10 -17 -17
-16 -13 -17 -12 -4 4 13 16 21 21 21 13z m-60 -18 c0 -4 -7 -8 -15 -8 -8 0
-15 4 -15 8 0 5 7 9 15 9 8 0 15 -4 15 -9z m171 -5 c13 -17 13 -17 -6 -3 -11
8 -22 16 -24 17 -2 2 0 3 6 3 6 0 17 -8 24 -17z m-96 -2 c3 -5 2 -12 -3 -15
-5 -3 -9 1 -9 9 0 17 3 19 12 6z m76 -18 c13 -16 12 -17 -3 -4 -17 13 -22 21
-14 21 2 0 10 -8 17 -17z m-22 -17 c9 -11 9 -16 0 -22 -7 -4 -9 -3 -5 4 3 6
-2 15 -11 21 -10 6 -13 11 -7 11 6 0 17 -6 23 -14z m3442 -17 c2 -13 6 -29 9
-31 8 -10 4 -70 -4 -76 -25 -15 -35 -11 -23 9 6 10 15 19 20 19 4 0 3 8 -2 19
-6 10 -7 22 -3 26 4 5 -2 5 -13 2 -19 -7 -19 -6 -2 7 18 14 7 33 -13 21 -5 -3
-7 0 -4 9 6 15 33 11 35 -5z m-3451 -29 c0 -5 -5 -10 -11 -10 -5 0 -7 5 -4 10
3 6 8 10 11 10 2 0 4 -4 4 -10z m3403 -15 c-3 -9 -8 -14 -10 -11 -3 3 -2 9 2
15 9 16 15 13 8 -4z m-28 -14 c3 -5 2 -12 -3 -15 -5 -3 -9 1 -9 9 0 17 3 19
12 6z m60 -9 c-3 -3 -11 0 -18 7 -9 10 -8 11 6 5 10 -3 15 -9 12 -12z m-22
-27 c-6 -17 -33 -21 -33 -5 0 6 6 9 13 8 6 -2 11 3 9 10 -1 8 2 11 7 7 6 -3 8
-12 4 -20z m-622 0 c3 2 5 -6 5 -20 0 -13 -4 -21 -9 -18 -4 3 -6 8 -3 11 3 3
-2 15 -11 26 -14 15 -14 18 -2 8 9 -6 18 -10 20 -7z m115 -7 c12 -14 13 -18 3
-10 -9 6 -18 10 -21 7 -2 -3 -5 2 -5 10 0 19 0 19 23 -7z m128 -7 c-2 -3 -12
3 -22 13 -16 17 -16 18 5 5 12 -7 20 -15 17 -18z m-177 2 c0 -9 -4 -10 -14 -2
-7 6 -13 12 -13 14 0 1 6 2 13 2 8 0 14 -6 14 -14z m136 -1 c15 -16 15 -19 2
-19 -8 0 -13 3 -10 5 3 3 0 11 -6 19 -17 20 -5 16 14 -5z m-232 -9 c13 -16 12
-17 -3 -4 -17 13 -22 21 -14 21 2 0 10 -8 17 -17z m70 -10 c13 -16 12 -17 -3
-4 -17 13 -22 21 -14 21 2 0 10 -8 17 -17z m135 5 c3 -4 -1 -5 -10 -4 -8 1
-18 5 -22 8 -3 4 1 5 10 4 8 -1 18 -5 22 -8z m94 -2 c0 -2 -8 -10 -17 -17 -16
-13 -17 -12 -4 4 13 16 21 21 21 13z m193 -11 c-3 -9 -8 -14 -10 -11 -3 3 -2
9 2 15 9 16 15 13 8 -4z m141 -14 c-2 -3 -12 3 -22 13 -16 17 -16 18 5 5 12
-7 20 -15 17 -18z m-517 -6 c0 -8 -4 -15 -9 -15 -10 0 -11 14 -1 23 9 10 10 9
10 -8z m74 -8 c-8 -8 -14 -7 -23 2 -11 10 -9 11 6 5 15 -6 17 -4 11 6 -6 9 -4
11 4 5 9 -5 10 -10 2 -18z m39 -15 c0 -15 2 -15 10 -2 6 10 10 11 10 3 0 -7 0
-16 0 -20 1 -11 -29 -12 -36 -2 -3 5 -13 5 -25 -1 -21 -12 -43 -4 -34 11 4 5
-1 9 -10 9 -9 0 -13 -4 -10 -10 3 -5 1 -10 -4 -10 -6 0 -11 4 -11 9 0 19 22
23 48 10 21 -12 26 -12 30 0 4 11 6 11 14 0 7 -10 8 -8 5 9 -3 12 -1 20 4 16
5 -3 9 -13 9 -22z m215 18 c-3 -5 -14 -10 -23 -9 -14 0 -13 2 3 9 27 11 27 11
20 0z m161 -2 c3 -4 -1 -5 -10 -4 -8 1 -18 5 -22 8 -3 4 1 5 10 4 8 -1 18 -5
22 -8z m-93 -12 c3 3 4 -2 3 -12 -2 -10 -9 -20 -17 -22 -11 -3 -11 -1 1 7 13
9 8 15 -11 13 -3 -1 -6 6 -6 13 0 10 4 12 12 5 7 -5 14 -7 18 -4z m-438 -6
c-26 -11 -35 -12 -35 -2 0 4 12 8 28 9 23 1 24 1 7 -7z m481 -6 c-5 -12 -2
-15 11 -10 14 6 15 4 6 -5 -14 -14 -34 -3 -26 16 3 8 7 15 10 15 3 0 2 -7 -1
-16z m-104 -16 c-7 -7 -16 -7 -28 0 -14 8 -13 10 10 10 18 0 24 -4 18 -10z
m-382 -152 c0 -3 -4 -8 -10 -11 -5 -3 -10 -1 -10 4 0 6 5 11 10 11 6 0 10 -2
10 -4z"/>
<path d="M3923 3735 c0 -8 4 -12 9 -9 5 3 6 10 3 15 -9 13 -12 11 -12 -6z"/>
<path d="M3870 3725 c-7 -9 -8 -15 -2 -15 5 0 12 7 16 15 3 8 4 15 2 15 -2 0
-9 -7 -16 -15z"/>
<path d="M3927 3695 c-9 -6 -14 -15 -10 -18 3 -4 1 -7 -5 -7 -7 0 -12 5 -12
12 0 6 -3 8 -6 5 -4 -4 -1 -14 6 -22 12 -15 15 -15 24 2 10 18 12 18 28 2 14
-14 14 -18 2 -23 -8 -3 -11 -12 -7 -22 4 -11 2 -15 -4 -11 -18 11 -40 -27 -39
-68 1 -32 5 -40 20 -40 11 0 21 7 23 15 3 10 2 11 -4 4 -6 -9 -11 -8 -20 1
-10 10 -9 14 3 19 8 3 12 10 9 16 -3 5 -1 10 4 10 6 0 11 -8 12 -17 0 -10 3
-13 5 -6 3 7 0 22 -7 34 -10 19 -9 21 4 16 9 -3 26 4 40 17 23 22 27 22 43 7
9 -9 14 -10 10 -3 -4 7 -1 12 7 12 7 0 14 7 14 15 0 13 -3 13 -18 -1 -11 -10
-19 -12 -24 -4 -3 5 -11 8 -16 4 -5 -3 -17 0 -25 7 -8 7 -11 15 -6 18 6 3 0
13 -12 22 -18 14 -25 14 -39 4z m33 -10 c7 -9 8 -15 2 -15 -5 0 -12 7 -16 15
-3 8 -4 15 -2 15 2 0 9 -7 16 -15z m31 -52 c7 -10 9 -15 5 -11 -5 4 -15 0 -22
-10 -12 -15 -13 -15 -10 8 3 14 5 26 5 28 2 6 10 1 22 -15z m-56 -40 c-2 -10
-4 -20 -5 -23 -1 -3 -2 -8 -1 -12 0 -5 -3 -8 -9 -8 -11 0 -9 28 3 48 11 17 16
15 12 -5z"/>
<path d="M3990 3589 l-25 -20 25 12 c14 7 28 12 33 11 4 -1 7 3 7 8 0 15 -12
12 -40 -11z"/>
<path d="M4077 3593 c-10 -9 -9 -23 1 -23 5 0 9 7 9 15 0 17 -1 18 -10 8z"/>
<path d="M4153 4113 c0 -9 4 -10 14 -2 7 6 13 12 13 14 0 1 -6 2 -13 2 -8 0
-14 -6 -14 -14z"/>
<path d="M4201 3976 c-8 -10 -8 -16 3 -25 11 -9 16 -9 21 0 4 6 2 15 -5 19
-10 6 -9 9 1 13 8 3 9 6 3 6 -6 1 -17 -5 -23 -13z"/>
<path d="M4270 3920 c0 -5 5 -10 11 -10 5 0 7 5 4 10 -3 6 -8 10 -11 10 -2 0
-4 -4 -4 -10z"/>
<path d="M4221 3897 c9 -7 15 -20 13 -29 -1 -10 2 -20 7 -24 5 -3 8 9 6 27 -2
23 -8 33 -22 35 -18 2 -18 1 -4 -9z"/>
<path d="M4260 3836 c0 -2 7 -7 16 -10 8 -3 12 -2 9 4 -6 10 -25 14 -25 6z"/>
<path d="M4310 3719 c0 -5 5 -7 10 -4 6 3 10 8 10 11 0 2 -4 4 -10 4 -5 0 -10
-5 -10 -11z"/>
<path d="M4335 3640 c-3 -5 -1 -10 4 -10 6 0 11 5 11 10 0 6 -2 10 -4 10 -3 0
-8 -4 -11 -10z"/>
<path d="M4366 3558 c3 -5 10 -6 15 -3 13 9 11 12 -6 12 -8 0 -12 -4 -9 -9z"/>
<path d="M4383 3375 c0 -8 4 -12 9 -9 5 3 14 1 21 -5 9 -7 17 -7 27 1 12 8 12
9 -3 4 -11 -3 -20 0 -23 9 -8 19 -31 19 -31 0z"/>
<path d="M4448 3152 c-9 -11 -10 -14 0 -8 6 4 12 2 12 -3 0 -6 8 -11 17 -11
15 0 14 2 -3 16 -16 13 -16 15 -2 10 10 -3 19 -2 22 2 9 16 -33 10 -46 -6z"/>
<path d="M4471 3103 c9 -10 8 -13 -1 -13 -8 0 -10 -3 -7 -7 4 -3 1 -13 -6 -21
-10 -13 -9 -14 9 -2 22 14 28 57 7 57 -9 0 -10 -4 -2 -14z"/>
<path d="M4494 2979 c-3 -6 -1 -16 5 -22 9 -9 10 -7 5 8 -7 18 -6 19 12 5 18
-14 18 -14 5 3 -16 20 -18 20 -27 6z"/>
<path d="M4470 2770 c0 -13 18 -22 24 -11 3 5 -1 11 -9 15 -8 3 -15 1 -15 -4z"/>
<path d="M4504 2506 c0 -17 4 -22 15 -18 9 3 11 7 4 9 -7 3 -9 11 -6 19 3 8 1
14 -4 14 -5 0 -9 -11 -9 -24z"/>
<path d="M4472 2401 c-9 -6 -9 -11 2 -27 13 -17 12 -21 -1 -36 -15 -16 -15
-20 1 -37 11 -12 14 -21 7 -26 -15 -9 -14 -28 2 -22 6 2 11 10 9 17 -2 8 4 10
15 6 16 -5 15 -4 -1 9 -14 11 -16 15 -5 15 8 0 10 3 4 8 -16 11 -17 33 -3 50
10 12 10 14 1 8 -8 -4 -13 -1 -13 9 0 12 4 14 19 5 15 -7 19 -7 17 5 -1 8 -6
18 -11 22 -4 4 -5 2 -1 -4 8 -15 -6 -17 -20 -3 -5 5 -15 6 -22 1z m15 -86 c0
-8 -4 -12 -9 -9 -5 3 -6 10 -3 15 9 13 12 11 12 -6z"/>
<path d="M4510 2339 c0 -5 5 -7 10 -4 6 3 10 8 10 11 0 2 -4 4 -10 4 -5 0 -10
-5 -10 -11z"/>
<path d="M4472 2138 c-18 -18 -15 -25 12 -30 18 -4 23 -1 21 11 -2 9 -4 19 -4
24 -1 11 -15 9 -29 -5z m23 -8 c3 -5 -1 -10 -10 -10 -9 0 -13 5 -10 10 3 6 8
10 10 10 2 0 7 -4 10 -10z"/>
<path d="M4491 2080 c14 -31 19 -36 19 -24 0 6 -7 19 -16 30 -14 18 -14 18 -3
-6z"/>
<path d="M4475 1900 c-16 -7 -17 -9 -3 -9 9 -1 20 4 23 9 7 11 7 11 -20 0z"/>
<path d="M4438 1878 c7 -7 8 -17 1 -30 -7 -13 -6 -18 2 -18 8 0 8 -4 -1 -15
-9 -11 -10 -18 -1 -29 9 -11 8 -15 -4 -20 -9 -3 -13 -10 -10 -16 9 -15 25 -12
25 5 0 8 6 15 13 15 6 0 4 5 -5 11 -10 5 -18 15 -18 21 0 6 7 5 17 -3 15 -12
16 -12 8 1 -13 21 -18 63 -7 56 5 -3 9 1 9 9 0 8 -4 12 -9 9 -4 -3 -8 0 -8 5
0 6 -5 11 -12 11 -9 0 -9 -3 0 -12z"/>
<path d="M690 1860 c0 -5 5 -10 11 -10 5 0 7 5 4 10 -3 6 -8 10 -11 10 -2 0
-4 -4 -4 -10z"/>
<path d="M4470 1820 c0 -5 5 -10 11 -10 5 0 7 5 4 10 -3 6 -8 10 -11 10 -2 0
-4 -4 -4 -10z"/>
<path d="M720 1790 c-8 -5 -10 -10 -5 -10 6 0 17 5 25 10 8 5 11 10 5 10 -5 0
-17 -5 -25 -10z"/>
<path d="M733 1735 c0 -8 4 -12 9 -9 5 3 6 10 3 15 -9 13 -12 11 -12 -6z"/>
<path d="M789 1723 c-13 -16 -13 -17 4 -4 15 12 17 11 17 -2 0 -9 8 -15 19
-14 12 1 17 6 13 16 -4 11 -7 11 -10 2 -3 -9 -7 -7 -16 4 -11 15 -13 15 -27
-2z"/>
<path d="M854 1689 c-3 -6 -3 -13 0 -16 3 -4 6 0 6 8 0 12 2 12 9 0 5 -8 11
-9 15 -3 3 5 -1 12 -9 16 -8 3 -17 1 -21 -5z"/>
<path d="M815 1680 c-3 -6 1 -7 9 -4 18 7 21 14 7 14 -6 0 -13 -4 -16 -10z"/>
<path d="M4455 1680 c3 -5 8 -10 11 -10 2 0 4 5 4 10 0 6 -5 10 -11 10 -5 0
-7 -4 -4 -10z"/>
<path d="M985 1643 c-14 -11 -15 -14 -4 -10 9 3 21 1 27 -5 7 -7 10 -6 8 5 -3
25 -9 27 -31 10z"/>
<path d="M993 1605 c0 -8 4 -12 9 -9 5 3 6 10 3 15 -9 13 -12 11 -12 -6z"/>
<path d="M4456 1575 c-3 -9 -6 -22 -5 -28 0 -7 5 -1 10 12 5 13 8 26 5 28 -2
2 -6 -3 -10 -12z"/>
<path d="M4383 1508 c-4 -7 -8 -17 -8 -23 0 -5 -7 -10 -15 -10 -8 -1 -25 -6
-37 -13 -27 -15 -36 -15 -27 0 4 6 3 8 -4 5 -11 -8 -5 -44 9 -53 5 -3 6 3 2
12 -5 13 -3 15 7 9 9 -6 11 -4 6 4 -5 8 -3 11 5 10 26 -6 88 39 89 64 0 12
-18 8 -27 -5z"/>
<path d="M4410 1479 c0 -5 5 -7 10 -4 6 3 10 8 10 11 0 2 -4 4 -10 4 -5 0 -10
-5 -10 -11z"/>
<path d="M3856 1447 c3 -10 9 -15 12 -12 3 3 0 11 -7 18 -10 9 -11 8 -5 -6z"/>
<path d="M4393 1445 c0 -8 4 -12 9 -9 5 3 6 10 3 15 -9 13 -12 11 -12 -6z"/>
<path d="M3809 1325 c-6 -3 -5 -35 2 -36 5 -1 13 -2 19 -3 5 0 16 -10 25 -21
15 -19 16 -19 3 5 -7 14 -11 29 -10 33 1 5 -2 6 -8 2 -5 -3 -10 -2 -10 4 0 5
6 11 13 14 6 3 2 4 -10 4 -13 -1 -23 -1 -24 -2z"/>
<path d="M3830 1200 c0 -5 5 -10 10 -10 6 0 10 5 10 10 0 6 -4 10 -10 10 -5 0
-10 -4 -10 -10z"/>
<path d="M3866 1121 c-16 -18 -16 -20 6 -35 26 -19 38 -20 38 -5 0 5 -4 8 -8
5 -4 -2 -14 -1 -22 5 -9 5 -10 9 -3 9 6 0 11 9 10 20 -2 24 0 24 -21 1z"/>
<path d="M3930 991 c0 -6 4 -13 10 -16 6 -3 7 1 4 9 -7 18 -14 21 -14 7z"/>
<path d="M3914 946 c10 -8 15 -19 11 -25 -3 -6 -2 -11 3 -11 11 0 25 30 17 38
-3 3 -5 2 -5 -2 0 -4 -10 -2 -22 4 -22 10 -22 10 -4 -4z"/>
<path d="M3969 773 c-8 -10 -9 -14 -2 -10 7 4 16 0 22 -10 6 -10 11 -13 11 -6
0 6 -5 15 -10 18 -6 4 -8 11 -5 16 10 15 -2 10 -16 -8z"/>
<path d="M4015 760 c-3 -5 -1 -10 4 -10 6 0 11 5 11 10 0 6 -2 10 -4 10 -3 0
-8 -4 -11 -10z"/>
<path d="M3996 713 c-6 -14 -5 -15 5 -6 7 7 10 15 7 18 -3 3 -9 -2 -12 -12z"/>
<path d="M1330 550 c0 -5 5 -10 11 -10 5 0 7 5 4 10 -3 6 -8 10 -11 10 -2 0
-4 -4 -4 -10z"/>
<path d="M4580 445 c0 -2 6 -8 13 -14 10 -8 14 -7 14 2 0 8 -6 14 -14 14 -7 0
-13 -1 -13 -2z"/>
<path d="M4576 418 c5 -7 9 -21 10 -30 1 -10 3 -20 4 -23 1 -3 3 -10 4 -16 0
-6 17 -23 36 -38 19 -14 29 -19 23 -10 -7 9 -10 19 -6 23 4 4 0 4 -9 1 -13 -5
-16 -2 -13 14 2 12 0 19 -5 16 -5 -3 -11 -1 -15 5 -3 5 -1 10 4 10 6 0 11 5
11 10 0 6 -3 9 -7 9 -19 -3 -27 2 -16 9 9 6 6 11 -8 21 -17 10 -20 10 -13 -1z"/>
<path d="M280 9 c-16 -4 2 -7 54 -8 44 -1 77 1 75 4 -9 9 -104 12 -129 4z"/>
</g>
</svg>
